HIERARCHY
ROOT Hips
{
	OFFSET 0.000000 0.000000 0.000000
	CHANNELS 6 Xposition Yposition Zposition Zrotation Yrotation Xrotation 
	JOINT LHipJoint
	{
		OFFSET 0.000000 0.000000 0.000000
		CHANNELS 3 Zrotation Yrotation Xrotation
		JOINT LeftUpLeg
		{
			OFFSET 1.363060 -1.794630 0.839290
			CHANNELS 3 Zrotation Yrotation Xrotation
			JOINT LeftLeg
			{
				OFFSET 2.448110 -6.726130 0.000000
				CHANNELS 3 Zrotation Yrotation Xrotation
				JOINT LeftFoot
				{
					OFFSET 2.562200 -7.039590 0.000000
					CHANNELS 3 Zrotation Yrotation Xrotation
					JOINT LeftToeBase
					{
						OFFSET 0.157640 -0.433110 2.322550
						CHANNELS 3 Zrotation Yrotation Xrotation
						End Site
						{
							OFFSET 0.000000 0.000000 0.000000
						}
					}
				}
			}
		}
	}
	JOINT RHipJoint
	{
		OFFSET 0.000000 0.000000 0.000000
		CHANNELS 3 Zrotation Yrotation Xrotation
		JOINT RightUpLeg
		{
			OFFSET -1.305520 -1.794630 0.839290
			CHANNELS 3 Zrotation Yrotation Xrotation
			JOINT RightLeg
			{
				OFFSET -2.542530 -6.985550 0.000000
				CHANNELS 3 Zrotation Yrotation Xrotation
				JOINT RightFoot
				{
					OFFSET -2.568260 -7.056230 0.000000
					CHANNELS 3 Zrotation Yrotation Xrotation
					JOINT RightToeBase
					{
						OFFSET -0.164730 -0.452590 2.363150
						CHANNELS 3 Zrotation Yrotation Xrotation
						End Site
						{
							OFFSET 0.000000 0.000000 0.000000
						}
					}
				}
			}
		}
	}
	JOINT LowerBack
	{
		OFFSET 0.000000 0.000000 0.000000
		CHANNELS 3 Zrotation Yrotation Xrotation
		JOINT Spine
		{
			OFFSET 0.028270 2.035590 -0.193380
			CHANNELS 3 Zrotation Yrotation Xrotation
			JOINT Spine1
			{
				OFFSET 0.056720 2.048850 -0.042750
				CHANNELS 3 Zrotation Yrotation Xrotation
				JOINT Neck
				{
					OFFSET 0.000000 0.000000 0.000000
					CHANNELS 3 Zrotation Yrotation Xrotation
					JOINT Neck1
					{
						OFFSET -0.054170 1.746240 0.172020
						CHANNELS 3 Zrotation Yrotation Xrotation
						JOINT Head
						{
							OFFSET 0.104070 1.761360 -0.123970
							CHANNELS 3 Zrotation Yrotation Xrotation
							End Site
							{
								OFFSET 0.000000 0.000000 0.000000
							}
						}
					}
				}
				JOINT LeftShoulder
				{
					OFFSET 0.000000 0.000000 0.000000
					CHANNELS 3 Zrotation Yrotation Xrotation
					JOINT LeftArm
					{
						OFFSET 3.362410 1.200890 -0.311210
						CHANNELS 3 Zrotation Yrotation Xrotation
						JOINT LeftForeArm
						{
							OFFSET 4.983000 -0.000000 -0.000000
							CHANNELS 3 Zrotation Yrotation Xrotation
							JOINT LeftHand
							{
								OFFSET 3.483560 -0.000000 -0.000000
								CHANNELS 3 Zrotation Yrotation Xrotation
								JOINT LeftFingerBase
								{
									OFFSET 0.000000 0.000000 0.000000
									CHANNELS 3 Zrotation Yrotation Xrotation
									JOINT LeftHandIndex1
									{
										OFFSET 0.715260 -0.000000 -0.000000
										CHANNELS 3 Zrotation Yrotation Xrotation
										End Site
										{
											OFFSET 0.000000 0.000000 0.000000
										}
									}
								}
								JOINT LThumb
								{
									OFFSET 0.000000 0.000000 0.000000
									CHANNELS 3 Zrotation Yrotation Xrotation
									End Site
									{
										OFFSET 0.000000 0.000000 0.000000
									}
								}
							}
						}
					}
				}
				JOINT RightShoulder
				{
					OFFSET 0.000000 0.000000 0.000000
					CHANNELS 3 Zrotation Yrotation Xrotation
					JOINT RightArm
					{
						OFFSET -3.136600 1.374050 -0.404650
						CHANNELS 3 Zrotation Yrotation Xrotation
						JOINT RightForeArm
						{
							OFFSET -5.241900 -0.000000 -0.000000
							CHANNELS 3 Zrotation Yrotation Xrotation
							JOINT RightHand
							{
								OFFSET -3.444170 -0.000000 -0.000000
								CHANNELS 3 Zrotation Yrotation Xrotation
								JOINT RightFingerBase
								{
									OFFSET 0.000000 0.000000 0.000000
									CHANNELS 3 Zrotation Yrotation Xrotation
									JOINT RightHandIndex1
									{
										OFFSET -0.622530 -0.000000 -0.000000
										CHANNELS 3 Zrotation Yrotation Xrotation
										End Site
										{
											OFFSET 0.000000 0.000000 0.000000
										}
									}
								}
								JOINT RThumb
								{
									OFFSET 0.000000 0.000000 0.000000
									CHANNELS 3 Zrotation Yrotation Xrotation
									End Site
									{
										OFFSET 0.000000 0.000000 0.000000
									}
								}
							}
						}
					}
				}
			}
		}
	}
}
MOTION
Frames: 9
Frame Time: 0.008333
-1.070994 17.913679 0.351984 5.572115 -19.371949 14.039925 -1.782660 1.993075 1.908662 -17.747824 2.715241 -20.584678 -0.541532 5.565278 17.389496 -6.419798 26.402137 -9.758726 0.768600 -5.598300 -15.623200 -0.249174 -1.777692 0.386438 1.853359 22.676314 -31.156285 -1.901177 -9.861691 29.160111 -0.709768 3.821190 3.896181 -0.004400 -0.427000 1.173200 -1.952372 -6.017120 7.733586 5.532864 -8.215876 2.243827 9.047299 -4.206451 2.276635 -13.345845 -5.779999 -17.554433 5.061165 -5.273112 27.501775 3.392700 -3.405600 16.173200 -8.242491 -1.978787 0.090894 -131.971426 -63.322336 149.812283 18.384205 -31.389047 -5.575873 -1.028033 -0.425332 44.652503 56.617137 30.546146 39.280700 -7.125000 0.000000 0.000000 51.369500 73.624600 37.158400 7.788992 3.229663 -1.136619 37.443383 25.340962 51.247304 -57.760358 52.410487 -33.855407 1.033550 -0.627736 51.988810 -50.475372 -14.309789 17.680500 7.125000 0.000000 0.000000 -24.839600 -51.038200 3.900800 
-1.068487 17.913378 0.368631 5.710155 -20.142886 14.020569 -1.792204 1.990656 1.918945 -18.042679 3.080022 -20.635423 -0.528627 5.582684 17.468678 -6.460045 26.572705 -10.000811 0.781300 -5.643400 -15.753100 -0.257260 -1.780406 0.375479 1.585618 23.124750 -31.246181 -1.899916 -9.847267 29.121364 -0.732726 4.006791 4.109933 -0.003000 -0.356600 0.979700 -2.053962 -6.176315 7.672090 5.608019 -8.443014 2.217601 9.202236 -4.321332 2.338445 -13.313500 -5.366590 -17.497695 4.820033 -4.653196 27.424872 3.392400 -3.194500 16.027400 -8.234335 -2.027605 0.101184 -131.973969 -63.319985 149.814184 18.382375 -31.388614 -5.575166 -1.028650 -0.425624 44.653212 56.616898 30.545201 39.280700 -7.125000 0.000000 0.000000 51.369500 73.624600 37.158400 7.790131 3.231758 -1.189991 37.680319 26.326232 51.426282 -56.766421 52.085693 -32.964616 1.038463 -0.643715 51.562375 -50.803485 -14.379803 17.933700 7.125000 0.000000 0.000000 -25.266800 -51.189500 4.073600 
-1.064175 17.917390 0.391896 5.762123 -20.899843 14.085839 -1.797687 1.987495 1.926337 -18.259727 3.424208 -20.717479 -0.517397 5.595840 17.523160 -6.518325 26.788017 -10.166244 0.822000 -5.784800 -16.161200 -0.264199 -1.781428 0.365926 1.378222 23.530465 -31.382295 -1.905266 -9.845105 29.122881 -0.766090 4.280224 4.274074 -0.005900 -0.496200 1.363500 -1.913823 -6.346346 7.422220 5.652130 -8.672564 2.198412 9.151186 -4.433653 2.482417 -13.298753 -4.897123 -17.424050 4.666383 -3.967044 27.340032 3.446800 -2.947600 15.873700 -8.225597 -2.062075 0.106493 -131.978101 -63.315188 149.815293 18.380243 -31.385714 -5.574507 -1.029574 -0.425850 44.653874 56.616391 30.544204 39.280700 -7.125000 0.000000 0.000000 51.369500 73.624600 37.158400 7.783053 3.220366 -1.223296 38.012547 26.984368 51.531008 -56.626401 52.020581 -32.822424 1.034847 -0.646899 51.195921 -50.767355 -14.123570 17.611800 7.125000 0.000000 0.000000 -25.103000 -50.809400 3.799500 
-1.062972 17.918794 0.408141 5.842868 -21.663520 13.997618 -1.814591 2.003075 1.942671 -18.449222 3.741998 -20.658146 -0.495066 5.610169 17.563386 -6.648540 27.209786 -9.909542 0.969700 -6.269300 -17.567900 -0.270893 -1.792607 0.359589 1.218271 23.958274 -31.392525 -1.914203 -9.841918 29.141214 -0.796097 4.541460 4.456644 -0.008500 -0.596600 1.639400 -2.155405 -6.431511 7.801189 5.903591 -8.793778 2.016219 9.715763 -4.492710 2.153784 -13.472427 -4.391022 -17.482434 4.260192 -3.095837 27.477727 3.454700 -2.693600 15.842200 -8.216364 -2.108127 0.095624 -131.983495 -63.326576 149.821147 18.377357 -31.392264 -5.572832 -1.029686 -0.426723 44.655555 56.616918 30.542408 39.280700 -7.125000 0.000000 0.000000 51.369500 73.624600 37.158400 7.789274 3.194523 -1.260538 37.919272 27.254920 51.840872 -56.735302 52.049297 -32.905053 1.040658 -0.639998 51.184290 -50.732007 -14.350960 17.853400 7.125000 0.000000 0.000000 -25.167900 -51.123400 4.013200 
-1.069490 17.912877 0.411350 6.137023 -22.284982 13.856160 -1.826134 2.009847 1.945316 -18.792191 4.021004 -20.644039 -0.474457 5.612650 17.560531 -6.753904 27.550646 -9.300307 1.170700 -6.867900 -19.324600 -0.283142 -1.795271 0.349699 0.845914 24.369474 -31.476377 -1.924547 -9.849519 29.157192 -0.804916 4.610098 4.615384 -0.010400 -0.659300 1.811800 -2.475747 -6.511462 7.970590 5.946786 -8.924680 2.022677 9.979662 -4.566082 2.145005 -13.358516 -3.993251 -17.581681 3.989523 -2.494818 27.283457 3.417600 -2.471500 15.685800 -8.207500 -2.151433 0.097474 -131.987798 -63.325643 149.824376 18.374695 -31.393047 -5.571674 -1.030339 -0.427251 44.656718 56.616817 30.540976 39.280700 -7.125000 0.000000 0.000000 51.369500 73.624600 37.158400 7.794163 3.179416 -1.301502 38.157345 27.860187 51.866137 -56.230243 51.872963 -32.453023 1.030672 -0.652195 51.080353 -50.668258 -14.078447 17.489200 7.125000 0.000000 0.000000 -24.963200 -50.702800 3.707600 
-1.075206 17.910771 0.423183 6.321666 -22.900100 13.794762 -1.830773 2.013874 1.951090 -19.052513 4.343308 -20.646419 -0.469552 5.597974 17.534757 -6.774762 27.632101 -9.170356 1.223400 -7.015300 -19.760800 -0.287514 -1.795761 0.336480 0.570036 24.752580 -31.559056 -1.934326 -9.855944 29.177267 -0.819479 4.733213 4.769064 -0.009400 -0.624700 1.716500 -2.354555 -6.502755 7.829646 5.784324 -8.912430 2.166668 9.645701 -4.557448 2.337048 -12.892809 -3.769223 -17.879091 3.895456 -2.274964 27.156302 3.330600 -2.327300 15.648700 -8.198674 -2.174479 0.107140 -131.992049 -63.313493 149.823280 18.372763 -31.385641 -5.571462 -1.031675 -0.427186 44.656931 56.615813 30.540313 39.280700 -7.125000 0.000000 0.000000 51.369500 73.624600 37.158400 7.796027 3.168537 -1.317343 38.728731 28.311033 51.370725 -55.675710 51.665600 -31.966297 1.018420 -0.665644 51.021320 -50.419812 -13.820204 17.030500 7.125000 0.000000 0.000000 -24.553000 -50.247900 3.353300 
-1.073200 17.911674 0.447351 6.368279 -23.683385 13.743751 -1.840464 2.025470 1.966603 -19.145303 4.355283 -20.420400 -0.478970 5.575542 17.516797 -6.872887 27.994844 -9.805553 1.165200 -6.852300 -19.278600 -0.285837 -1.799716 0.319150 0.426211 25.163106 -31.575280 -1.942546 -9.853377 29.196271 -0.854040 5.041085 4.954623 -0.008800 -0.604900 1.662400 -2.182243 -6.327116 7.760594 5.734307 -8.674917 2.321144 9.457067 -4.444224 2.466075 -12.498132 -3.652522 -18.428694 3.731726 -2.135890 27.254441 3.224800 -2.246600 15.796600 -8.157359 -2.171178 0.111061 -131.995923 -63.298200 149.821821 18.369249 -31.372325 -5.570906 -1.033770 -0.427198 44.657487 56.614317 30.539043 39.280700 -7.125000 0.000000 0.000000 51.369500 73.624600 37.158400 7.722011 3.122938 -1.345271 39.390415 29.119203 49.653382 -62.096811 53.448915 -37.712488 0.750243 -0.428680 29.132457 -38.294305 6.795918 -5.448700 7.125000 0.000000 0.000000 -8.968500 -21.372800 -5.145400 
-1.072599 17.914381 0.473123 6.391029 -24.434477 13.741869 -1.848178 2.035647 1.977002 -19.291042 4.599530 -20.341703 -0.474521 5.563850 17.499926 -6.970794 28.325566 -9.904515 1.200800 -6.952700 -19.575400 -0.284394 -1.804946 0.305908 0.293993 25.559208 -31.626805 -1.946246 -9.844436 29.192536 -0.886310 5.337353 5.151643 -0.009400 -0.624500 1.716200 -1.909636 -6.210176 7.674304 5.667526 -8.506378 2.397046 9.190392 -4.348992 2.513972 -12.093922 -3.408938 -18.872243 3.557620 -1.837352 27.376283 3.129800 -2.100300 15.910800 -8.149292 -2.192077 0.112323 -132.001308 -63.291418 149.822237 18.366999 -31.367922 -5.570388 -1.034843 -0.427329 44.658008 56.613638 30.538145 39.280700 -7.125000 0.000000 0.000000 51.369500 73.624600 37.158400 7.737889 3.103058 -1.348708 39.819072 29.123908 48.836822 -61.301363 53.222285 -37.001753 0.744702 -0.458068 30.896754 -38.900525 5.917068 -4.855700 7.125000 0.000000 0.000000 -9.537200 -22.408500 -5.252500 
-1.076509 17.917189 0.492677 6.449911 -24.976032 13.760050 -1.852404 2.040823 1.982940 -19.468037 4.964519 -20.371267 -0.465483 5.555117 17.483059 -6.989382 28.383041 -9.698941 1.259700 -7.114900 -20.056100 -0.285855 -1.808517 0.296204 0.153187 25.857107 -31.704490 -1.949840 -9.841596 29.192694 -0.909049 5.547367 5.271272 -0.011000 -0.676100 1.857800 -1.686795 -6.224224 7.428460 5.619073 -8.524645 2.535676 8.943631 -4.358602 2.780075 -11.723190 -3.084688 -19.277512 3.395595 -1.417525 27.313987 3.066500 -1.901900 15.915000 -8.138556 -2.216717 0.118556 -132.005605 -63.279758 149.823055 18.364303 -31.363082 -5.569702 -1.036008 -0.427535 44.658696 56.612946 30.537041 39.280700 -7.125000 0.000000 0.000000 51.369500 73.624600 37.158400 7.752189 3.082656 -1.363554 40.189787 29.374597 48.174905 -60.644995 53.022148 -36.413169 0.745382 -0.462918 32.422474 -39.084216 4.572656 -3.764900 7.125000 0.000000 0.000000 -9.874100 -24.119500 -5.049300 
